<svg width="875" height="130" viewBox="0 0 875 122" fill="none" xmlns="http://www.w3.org/2000/svg">
<path d="M0.64 96L14.08 -7.62939e-06H42.24L37.248 35.584H61.824L66.816 -7.62939e-06H94.976L81.536 96H53.376L58.24 60.416H33.664L28.8 96H0.64ZM112.164 121.6L115.364 99.456H127.908C129.871 99.456 131.62 98.7733 133.156 97.408C134.692 96.128 135.588 94.5493 135.844 92.672H125.86C117.327 92.672 110.585 90.624 105.636 86.528C100.772 82.3467 98.2973 76.5867 98.212 69.248C98.212 67.456 98.34 65.6213 98.596 63.744L104.996 18.048H130.98L125.22 57.728C124.793 60.8853 124.58 62.848 124.58 63.616C124.58 68.0533 126.841 70.272 131.364 70.272H139.044L146.212 18.048H172.196L161.7 92.8C160.505 101.163 156.623 108.032 150.052 113.408C143.481 118.869 136.143 121.6 128.036 121.6H112.164ZM170.672 121.6L183.344 31.488C183.856 27.8187 185.776 24.6613 189.104 22.016C192.432 19.3707 196.229 18.048 200.496 18.048H209.968C221.829 18.048 231.771 21.8027 239.792 29.312C247.899 36.736 251.952 45.9947 251.952 57.088C251.952 68.5227 247.899 77.8667 239.792 85.12C231.685 92.3733 221.744 96 209.968 96H200.368L196.528 121.6H170.672ZM203.312 73.856H209.968C214.405 73.856 218.16 72.2773 221.232 69.12C224.304 65.8773 225.84 61.8667 225.84 57.088C225.84 52.224 224.304 48.2133 221.232 45.056C218.16 41.8133 214.405 40.192 209.968 40.192H208.176L203.312 73.856ZM323.456 96H300.032C288 96 278.059 92.3307 270.208 84.992C262.443 77.568 258.517 68.2667 258.432 57.088C258.432 45.7387 262.229 36.224 269.824 28.544C277.504 20.864 287.061 17.024 298.496 17.024C309.248 17.024 318.037 20.48 324.864 27.392C331.776 34.2187 335.232 43.3067 335.232 54.656C335.232 57.8987 333.952 60.5867 331.392 62.72C328.832 64.8533 325.675 65.92 321.92 65.92H284.544C285.653 68.736 287.659 70.9547 290.56 72.576C293.547 74.112 297.088 74.88 301.184 74.88H326.272L323.456 96ZM284.544 46.976H309.76C308.736 40.7467 305.024 37.632 298.624 37.632C295.211 37.632 292.267 38.4853 289.792 40.192C287.403 41.8133 285.653 44.0747 284.544 46.976ZM338.991 96L346.031 45.568C348.506 27.2213 359.684 18.048 379.567 18.048H401.967L398.767 40.96H380.335C378.116 40.96 376.196 41.7707 374.575 43.392C372.954 44.928 371.972 46.848 371.631 49.152L364.975 96H338.991ZM398 96L401.2 72.064H438.576C440.453 72.064 442.032 71.552 443.312 70.528C444.592 69.4187 445.232 68.0107 445.232 66.304C445.232 62.6347 442.715 60.6293 437.68 60.288C427.269 59.52 419.077 56.6613 413.104 51.712C407.216 46.6773 404.272 39.424 404.272 29.952C404.357 21.76 407.515 14.72 413.744 8.83199C419.973 2.94399 427.483 -7.62939e-06 436.272 -7.62939e-06H479.408L476.08 23.936H438.832C437.04 23.936 435.461 24.4907 434.096 25.6C432.816 26.624 432.176 27.9467 432.176 29.568C432.176 31.4453 432.731 32.896 433.84 33.92C434.949 34.8587 436.869 35.456 439.6 35.712C449.925 36.3947 458.032 39.2533 463.92 44.288C469.893 49.3227 472.88 56.576 472.88 66.048C472.88 74.24 469.765 81.28 463.536 87.168C457.392 93.056 449.968 96 441.264 96H398ZM534.055 96H516.775C508.156 96 501.415 93.952 496.551 89.856C491.772 85.6747 489.34 79.9147 489.255 72.576C489.255 70.784 489.383 68.9067 489.639 66.944L493.351 40.96H480.807L483.879 18.048H496.423L498.727 1.92H524.839L522.535 18.048H546.727L543.527 40.96H519.335L515.879 65.536C515.879 65.7067 515.836 65.9627 515.751 66.304C515.751 66.56 515.751 66.7307 515.751 66.816C515.751 68.608 516.348 70.1013 517.543 71.296C518.738 72.4907 520.316 73.088 522.279 73.088H537.127L534.055 96ZM541.616 96L548.656 45.568C551.131 27.2213 562.309 18.048 582.192 18.048H604.592L601.392 40.96H582.96C580.741 40.96 578.821 41.7707 577.2 43.392C575.579 44.928 574.597 46.848 574.256 49.152L567.6 96H541.616ZM668.081 96H644.657C632.625 96 622.684 92.3307 614.833 84.992C607.068 77.568 603.142 68.2667 603.057 57.088C603.057 45.7387 606.854 36.224 614.449 28.544C622.129 20.864 631.686 17.024 643.121 17.024C653.873 17.024 662.662 20.48 669.489 27.392C676.401 34.2187 679.857 43.3067 679.857 54.656C679.857 57.8987 678.577 60.5867 676.017 62.72C673.457 64.8533 670.3 65.92 666.545 65.92H629.169C630.278 68.736 632.284 70.9547 635.185 72.576C638.172 74.112 641.713 74.88 645.809 74.88H670.897L668.081 96ZM629.169 46.976H654.385C653.361 40.7467 649.649 37.632 643.249 37.632C639.836 37.632 636.892 38.4853 634.417 40.192C632.028 41.8133 630.278 44.0747 629.169 46.976ZM738.016 96H728.416C716.64 96 706.699 92.288 698.592 84.864C690.485 77.3547 686.432 68.096 686.432 57.088C686.432 45.6533 690.485 36.3093 698.592 29.056C706.784 21.7173 716.725 18.048 728.416 18.048H748.896C752.821 18.048 756.064 19.1573 758.624 21.376C761.184 23.5947 762.464 26.4107 762.464 29.824C762.464 30.592 762.421 31.1467 762.336 31.488L755.168 82.304C754.656 86.0587 752.693 89.3013 749.28 92.032C745.952 94.6773 742.197 96 738.016 96ZM728.416 73.856H730.464L735.2 40.192H728.416C723.893 40.192 720.096 41.8133 717.024 45.056C714.037 48.2133 712.544 52.224 712.544 57.088C712.544 61.8667 714.08 65.8773 717.152 69.12C720.224 72.2773 723.979 73.856 728.416 73.856ZM766.384 96L775.344 31.488C775.856 27.8187 777.776 24.6613 781.104 22.016C784.432 19.3707 788.229 18.048 792.496 18.048H846.896C855.6 18.048 862.427 20.224 867.376 24.576C872.325 28.8427 874.8 34.7733 874.8 42.368C874.8 43.9893 874.672 45.696 874.416 47.488L867.632 96H842.16L848.816 48.64V47.36C848.731 45.4827 848.048 43.9467 846.768 42.752C845.488 41.5573 843.909 40.96 842.032 40.96H837.424L829.744 96H804.272L811.952 40.96H799.536L791.856 96H766.384Z" fill="#6D28D9"/>
</svg>
